<svg width="730" height="454" viewBox="0 0 730 454" fill="none" xmlns="http://www.w3.org/2000/svg">
<rect width="730" height="454" fill="#037F29"/>
<path d="M344.958 105.751C344.45 105.831 342.335 106.045 340.274 106.286C331.092 107.277 322.927 109.07 313.37 112.175C304.028 115.2 292.115 120.34 284.058 124.864C267.461 134.153 258.172 141.435 248.267 152.892C240.022 162.475 227.279 185.845 222.22 200.756C218.686 211.089 217 221.234 217 232.076V236.627L218.553 233.816C224.362 223.403 233.142 216.068 244.171 212.427C248.588 210.955 252.175 210.286 257.047 209.991C270.137 209.188 276.348 207.475 283.763 202.523C293.828 195.83 300.146 186.381 303.305 173.317C305.152 165.741 304.858 157.496 302.502 149.947C301.137 145.664 297.362 138.677 294.739 135.626L293.962 134.715L291.152 135.92C287.083 137.66 281.836 140.23 279.159 141.783C277.874 142.532 276.402 143.362 275.893 143.656C270.539 146.681 262.24 153.106 255.039 159.798C250.435 164.082 243.234 172.487 238.951 178.591C237.613 180.491 236.461 182.124 236.328 182.285C236.221 182.419 235.069 184.319 233.758 186.514C232.446 188.683 231.322 190.396 231.268 190.342C230.947 190.021 236.488 178.992 239.433 174.12C243.02 168.124 247.999 161.003 251.158 157.255C251.479 156.881 252.255 155.97 252.871 155.248C256.539 150.884 264.007 143.924 268.772 140.417C279.319 132.654 288.716 127.729 304.135 121.92C314.173 118.145 318.537 116.807 325.684 115.227C337.088 112.738 348.224 111.747 359.146 112.256C378.608 113.166 393.117 117.851 406.127 127.381C409.526 129.897 409.259 129.656 413.087 132.975C425.775 143.924 435.627 158.246 440.392 172.648L441.088 174.789L439.508 176.262C434.556 180.839 433.083 182.151 431.343 183.463C428.907 185.283 427.596 185.899 425.99 185.899C424.544 185.899 423.446 185.417 420.903 183.623C417.209 181.053 409.767 178.002 405.27 177.199C402.539 176.744 397.534 176.663 395.499 177.092C393.09 177.573 389.877 178.644 387.923 179.635C386.879 180.116 385.916 180.545 385.782 180.545C384.898 180.518 390.118 177.761 392.795 176.851C399.381 174.575 405.645 174.12 411.106 175.485C414.372 176.315 418.494 178.269 423.527 181.401C425.24 182.445 425.561 182.553 427.141 182.553C428.667 182.553 429.068 182.445 430.299 181.642C431.745 180.732 434.368 178.002 434.368 177.44C434.368 176.851 429.951 172.915 427.248 171.122C424.544 169.302 422.188 168.097 419.11 167.026C411.159 164.215 401.683 164.028 394.616 166.544C381.472 171.229 376.975 172.46 374.003 172.112C370.978 171.791 367.445 170.587 365.517 169.248C365.089 168.954 364.768 168.847 364.768 168.954C364.768 169.087 365.49 170.64 366.347 172.38C367.926 175.539 370.47 179.661 371.862 181.214C372.263 181.642 373.093 182.606 373.709 183.329C375.449 185.39 379.116 188.495 382.168 190.503C393.786 198.213 407.331 200.14 421.332 196.098C425.882 194.786 430.353 192.538 434.235 189.62C435.52 188.629 441.757 184.48 442.56 184.078C443.229 183.73 443.283 183.891 443.711 187.906C445.157 201.693 443.042 212.293 436.965 221.582C432.334 228.703 425.856 234.191 417.45 238.206C411.721 240.964 407.117 242.302 401.04 243.025C381.82 245.327 368.489 238.581 362.974 223.778L362.091 221.368L362.251 223.376C362.921 231.915 366.802 240.187 372.772 245.916C379.036 251.939 387.147 255.312 396.222 255.687C408.108 256.142 420.85 251.618 432.495 242.757C435.118 240.776 440.231 235.77 442.078 233.415C446.977 227.124 449.6 221.69 451.876 212.936C455.034 200.916 455.115 189.272 452.143 178.751L451.447 176.288L452.331 175.004C453.589 173.183 456.908 169.783 459.398 167.776C465.608 162.77 470.668 161.217 482.955 160.441C487.479 160.173 490.397 160.334 490.236 160.842C490.183 161.003 488.577 161.458 486.676 161.886C469.383 165.581 463.895 168.043 457.069 175.164L454.499 177.841L455.249 179.715C456.052 181.696 456.855 185.015 456.855 186.407C456.855 187.317 456.908 187.344 459.933 187.799C463.092 188.254 469.597 188.174 473.184 187.639C483.437 186.113 494.038 180.277 500.676 172.514C502.898 169.891 502.631 170.239 504.531 167.374C509.377 160.013 512 151.232 512 142.452C512 139.373 511.732 136.107 511.491 136.107C511.411 136.107 511.01 136.937 510.581 137.955C509.055 141.756 506.646 144.861 503.809 146.681C500.409 148.903 498.348 149.251 487.238 149.492C477.521 149.706 476.637 149.84 470.882 151.768C463.494 154.23 455.918 159.584 449.841 166.598C448.744 167.883 448.556 167.99 448.396 167.535C447.887 166.062 445.933 161.646 444.648 159.049C439.428 148.528 431.879 138.543 423.179 130.566C415.576 123.606 408.616 118.868 399.702 114.558C392.742 111.185 386.21 109.017 378.42 107.464C371.246 106.045 368.007 105.804 356.469 105.724C350.66 105.67 345.467 105.697 344.958 105.751Z" fill="white"/>
<path d="M364.179 219.013C362.198 219.468 367.07 227.659 372.397 232.879C376.145 236.547 379.892 238.742 384.202 239.812C386.505 240.401 390.574 240.776 391.51 240.509C392.742 240.161 393.893 239.17 394.482 237.965C395.472 235.931 395.151 234.726 392.902 231.862C390.413 228.65 386.103 225.892 379.089 223.028C373.227 220.646 365.812 218.638 364.179 219.013Z" fill="white"/>
<path d="M298.112 268.483C288.983 269.687 281.22 274.318 277.365 280.904C275.224 284.544 274.233 289.523 274.822 293.566C275.438 297.902 277.205 301.275 280.497 304.354C284.138 307.807 288.394 310.136 296.639 313.188C302.341 315.303 304.135 316.213 305.848 317.846C308.177 320.067 309.06 322.718 308.525 325.876C307.347 332.649 301.083 336.691 292.383 336.263C284.325 335.888 279.855 331.98 279.427 325.02L279.293 322.691H272.734H266.176L266.363 324.993C266.791 330.534 268.665 335.112 271.931 338.619C278.275 345.418 287.564 348.095 299.316 346.489C307.99 345.311 315.967 340.332 319.179 334.068C321.455 329.624 322.204 323.922 321.107 319.264C320.491 316.668 318.537 313.161 316.556 311.046C313.049 307.352 308.471 304.702 300.521 301.73C294.23 299.375 293.454 299.027 291.553 297.661C288.742 295.68 287.672 293.833 287.672 291.023C287.672 284.143 293.962 279.03 302.368 279.057C306.919 279.083 309.89 280.101 311.951 282.349C313.879 284.437 314.709 286.686 314.709 289.818V291.638H321.267H327.826V290.621C327.826 288.801 327.049 284.544 326.407 282.778C324.399 277.183 320.277 272.846 314.762 270.49C309.73 268.349 304.215 267.68 298.112 268.483Z" fill="white"/>
<path d="M240.477 268.617C236.221 269.393 231.696 271.641 228.19 274.773C224.843 277.718 221.256 283.527 219.838 288.212C218.66 292.12 218.258 295.547 218.419 299.776C218.847 310.404 223.612 317.551 231.83 319.934C234.4 320.683 239.005 320.79 241.494 320.148C244.492 319.371 247.437 317.765 250.408 315.276C251.158 314.607 251.8 314.151 251.8 314.232C251.8 314.339 251.372 315.517 250.837 316.882C248.053 323.896 243.903 329.116 238.683 332.114C235.177 334.121 229.635 335.54 225.245 335.54C222.167 335.54 222.515 335.058 222.086 340.225C221.926 342.126 221.738 344.347 221.658 345.097L221.497 346.516H223.184C227.28 346.489 233.651 345.445 237.345 344.187C247.357 340.76 255.361 333.292 260.206 322.905C262.508 317.979 264.141 312.465 265.292 305.746C266.604 298.09 266.765 292.548 265.828 287.168C264.757 281.011 261.544 275.175 257.636 272.23C255.575 270.678 254.584 270.169 251.881 269.259C250.06 268.643 249.284 268.536 245.777 268.456C243.582 268.402 241.2 268.483 240.477 268.617ZM248.508 279.619C250.971 280.797 252.523 283.072 253.567 286.954C254.21 289.336 254.21 296.109 253.594 299.99C253.219 302.373 253.085 302.721 251.988 304.166C247.865 309.494 241.815 311.903 236.997 310.109C234.24 309.092 231.857 305.826 231.215 302.239C230.813 300.017 230.867 294.529 231.295 292.441C232.178 288.265 233.999 284.759 236.649 282.108C240.102 278.682 244.573 277.718 248.508 279.619Z" fill="white"/>
<path d="M359.146 268.617C351.704 269.821 344.744 273.863 339.658 279.94C333.876 286.793 330.556 294.503 328.709 305.291C328.067 308.985 327.986 310.136 327.986 315.865C327.986 321.567 328.04 322.584 328.602 325.047C330.877 335.38 335.75 341.938 343.513 345.097C346.645 346.355 348.786 346.783 352.989 346.971C362.385 347.346 370.416 344.107 377.135 337.227C383.533 330.695 387.468 322.53 389.503 311.448C393.572 289.336 386.826 273.167 371.862 269.125C370.148 268.67 368.783 268.536 365.169 268.483C362.68 268.429 359.949 268.483 359.146 268.617ZM367.257 279.458C374.887 281.064 378.608 288.935 377.644 301.516C376.68 314.071 374.217 322.37 369.667 328.42C366.534 332.596 362.599 335.112 357.941 335.942C355.024 336.45 353.899 336.45 351.517 335.942C346.912 334.951 343.727 331.9 341.853 326.572C340.274 322.209 340.327 312.893 341.907 304.086C344.128 291.933 349.67 283.259 357.138 280.288C360.083 279.11 364.098 278.789 367.257 279.458Z" fill="white"/>
<path d="M393.839 270.41C393.759 270.972 393.384 273.114 393.01 275.175C392.635 277.236 392.34 279.19 392.34 279.512V280.127H403.717C409.981 280.127 415.094 280.181 415.094 280.234C415.094 280.368 411.641 300.365 410.838 304.889C410.544 306.495 409.874 310.35 409.339 313.455C408.402 318.809 407.974 321.299 406.823 327.911C406.153 331.712 405.377 336.183 404.44 341.617L403.691 345.98H410.196C413.783 345.98 416.701 345.954 416.701 345.9C416.701 345.793 419.163 331.605 420.154 325.85C420.448 324.19 420.984 321.085 421.358 318.943C421.733 316.802 422.215 313.964 422.456 312.652C422.697 311.314 423.179 308.557 423.527 306.495C424.571 300.392 425.802 293.378 426.498 289.363C426.846 287.302 427.355 284.384 427.596 282.858L428.051 280.127H439.642C446.013 280.127 451.233 280.074 451.233 279.994C451.233 279.94 451.662 277.558 452.17 274.747C452.679 271.909 453.107 269.553 453.107 269.5C453.107 269.446 439.803 269.42 423.554 269.42H394.027L393.839 270.41Z" fill="white"/>
</svg>
