<svg width="730" height="454" viewBox="0 0 730 454" fill="none" xmlns="http://www.w3.org/2000/svg">
<rect width="730" height="454" fill="#35CD6B"/>
<path d="M429.758 196.219C431.078 193.683 430.952 191.147 429.129 188.85C427.872 187.271 427.935 185.74 428.249 184.065C429.067 179.185 426.867 174.591 425.861 169.902C425.672 168.945 424.792 168.18 423.849 167.51C422.844 166.84 422.341 166.026 422.404 164.974C422.718 162.007 421.461 159.471 418.632 157.413C417.878 156.887 417.752 156.169 417.627 155.452C416.935 152.772 415.364 150.523 412.41 148.896C409.015 147.748 407.758 145.116 405.432 143.202C400.278 140.81 394.118 139.949 388.901 137.508C387.644 136.934 385.633 137.317 383.936 137.317C382.301 137.317 380.604 137.413 378.97 137.269C375.136 136.982 371.993 137.939 369.479 140.14C368.599 140.906 367.719 141.719 366.964 142.532C365.707 143.824 364.764 143.968 363.633 142.437C362.061 140.284 359.924 138.178 356.844 137.747C351.439 137.03 345.719 136.408 340.565 137.987C336.73 139.183 333.21 141.001 328.936 141.575C327.239 141.815 325.668 142.82 324.725 143.92C322.776 146.169 320.388 148.035 317.559 149.614C315.17 150.954 313.662 152.772 313.473 155.165C313.411 156.217 312.656 157.126 311.588 157.844C310.331 158.705 309.011 159.949 309.073 161.05C309.136 164.591 306.999 167.414 304.736 170.333C302.599 173.156 304.611 176.649 302.411 179.52C301.845 181.147 301.971 182.678 302.599 184.305C302.976 185.405 303.416 186.554 302.473 187.654C301.028 189.281 300.273 191.195 300.651 193.061C301.279 196.076 300.965 198.994 300.713 202.057C300.462 205.693 301.782 209.33 302.411 213.014C303.605 214.976 303.856 217.033 303.605 219.234C303.291 221.914 304.736 224.067 307.125 226.077C309.199 227.799 310.205 230.001 309.953 232.345C309.702 234.594 309.953 236.747 311.273 238.805C311.965 240.288 313.222 241.389 315.045 242.202C315.925 242.968 316.868 243.733 317.559 244.594H317.622C319.005 246.7 321.079 248.327 323.845 249.379C325.919 250.049 328.559 249.714 330.13 251.293C332.205 252.825 335.096 253.207 337.547 254.26C339.245 255.552 341.382 256.03 343.77 256.222C346.787 256.509 349.49 255.169 352.256 255.169C356.907 255.169 360.364 253.829 363.193 251.341C365.016 249.762 366.147 250.193 367.656 251.628C369.73 253.638 372.496 254.93 375.89 255.073C377.901 255.169 379.724 255.361 381.673 255.887C384.313 256.605 387.33 256.652 389.97 255.695C396.067 253.59 401.41 250.336 407.884 248.757C410.272 248.135 411.844 246.461 412.85 244.642C413.541 243.446 414.484 242.537 415.867 241.676C418.569 239.953 420.707 237.8 420.581 235.025C420.455 232.393 420.581 229.857 421.964 227.417C423.095 226.077 424.918 225.12 425.672 223.541C426.929 221.531 427.307 219.426 426.678 217.273C426.427 216.411 426.489 215.646 427.055 214.976C428.375 213.397 428.375 211.674 428.312 209.904C428.249 209.043 428.312 208.181 428.752 207.32C430.009 204.688 430.764 201.961 429.569 199.186C429.067 198.229 429.255 197.224 429.758 196.219ZM425.547 201.195C425.735 203.109 425.861 204.975 424.352 206.698C423.912 207.177 423.724 207.799 423.975 208.468C424.667 210.717 424.227 212.871 422.089 214.641C421.209 215.359 421.649 216.124 421.901 216.842C422.404 218.325 422.718 219.809 421.901 221.244C418.884 223.589 417.375 226.555 415.678 229.426C415.301 230.192 415.364 230.958 415.615 231.771C416.684 235.264 415.552 237.465 411.655 239.522C410.587 240.049 409.707 240.527 409.33 241.58C408.198 244.834 406.061 246.174 401.598 246.461C400.027 246.556 398.895 246.843 397.89 247.896C396.884 248.949 395.501 249.714 393.741 249.858C392.358 250.001 391.227 250.48 390.158 251.198C389.467 251.676 388.775 252.298 387.77 252.25C381.421 251.915 374.884 252.203 369.856 248.422C367.027 246.269 366.839 241.484 369.604 239.331C372.936 236.699 376.518 234.259 379.913 231.675C380.918 230.91 382.05 230.766 383.37 230.814C386.513 230.814 389.655 230.958 392.798 230.814C395.375 230.67 396.193 232.489 397.953 233.206C400.593 234.068 403.044 233.828 405.37 232.537C408.261 229.857 408.261 228.852 405.495 225.551C403.295 223.78 400.781 223.637 398.015 224.641C395.941 227.034 392.924 227.895 389.404 227.321C381.107 225.933 375.764 229.378 370.799 233.589C370.61 233.781 370.359 233.924 370.17 234.116C368.41 234.69 368.473 233.637 368.473 232.871C368.347 230.335 368.41 227.799 368.473 225.216C368.473 224.306 369.227 223.78 369.919 223.206C373.627 220.383 377.336 217.608 380.981 214.737C382.113 213.875 383.307 213.54 384.878 213.54C391.227 213.588 397.638 213.588 403.987 213.54C405.558 213.54 406.878 213.78 407.821 214.737C408.512 215.407 409.518 215.646 410.461 215.933C412.158 216.698 413.792 216.651 415.49 215.933C420.581 212.966 420.518 208.995 415.364 207.033C412.347 205.885 410.021 206.842 408.135 208.468C406.941 209.473 405.747 209.808 404.05 209.76C399.524 209.713 395.061 209.76 390.535 209.76C389.844 209.76 388.901 209.952 388.65 209.234C388.461 208.756 389.153 208.421 389.593 208.086C392.735 205.645 395.753 203.157 399.021 200.765C400.027 200.047 400.53 199.329 400.467 198.277C400.404 197.702 400.467 197.176 400.467 196.602C400.53 188.85 400.53 188.802 408.135 183.683C409.204 182.917 410.272 182.439 412.032 182.678C415.427 183.108 418.884 180.812 419.135 178.18C419.387 175.788 416.118 173.108 412.975 173.06C409.455 172.964 406.25 174.974 406.564 177.701C406.941 180.572 404.364 181.817 402.29 183.348C401.284 184.113 400.404 183.922 400.467 182.63C400.467 178.419 400.467 174.209 400.467 169.998C400.467 169.28 400.844 168.754 401.598 168.371C404.427 166.888 404.678 164.734 404.112 162.438C401.85 159.423 398.393 158.323 394.181 160.524C390.975 163.634 390.975 165.261 394.307 168.036C395.187 168.754 395.501 169.471 395.501 170.381C395.501 174.304 395.501 178.18 395.501 182.104C395.501 182.63 395.815 183.3 394.998 183.587C394.118 183.874 393.741 183.204 393.238 182.821C391.353 181.338 389.844 179.903 390.221 177.462C390.598 175.022 387.141 173.06 383.684 173.06C380.353 173.06 377.838 175.022 377.713 177.606C377.587 180.19 379.913 182.63 383.181 182.439C386.576 182.247 388.398 183.539 390.284 185.118C390.535 185.357 390.85 185.597 391.227 185.74C397.135 188.515 396.381 192.917 396.13 197.176C396.13 197.559 395.941 198.037 395.627 198.277C392.17 201.004 388.65 203.731 385.067 206.411C384.187 207.081 383.496 206.65 383.621 205.741C383.873 203.157 382.616 200.525 386.198 198.324C389.153 196.506 387.896 193.3 384.124 191.051C381.296 189.951 378.907 190.573 376.644 192.056C375.01 194.114 374.318 196.123 376.456 198.229C377.021 198.42 377.461 198.659 377.838 198.899C377.964 199.377 378.593 199.616 378.97 199.951C379.158 200.191 379.284 200.43 379.347 200.669C379.347 200.717 379.347 200.717 379.347 200.765C379.033 204.21 379.787 207.655 378.907 211.052C376.204 213.11 373.439 215.215 370.673 217.273C369.981 217.799 369.353 218.852 368.284 218.517C367.216 218.182 367.781 217.081 367.781 216.364C367.781 202.439 367.97 188.515 367.656 174.639C367.53 170.093 368.536 166.409 373.627 163.682C374.758 163.108 375.513 162.151 376.456 161.337C377.084 161.002 377.776 161.002 378.53 161.05C383.244 161.289 384.501 160.667 386.513 157.509C386.513 153.681 384.187 151.384 380.227 151.384C376.204 151.384 374.13 153.394 374.067 157.461C374.067 158.37 373.501 158.945 372.747 159.519C371.553 160.38 370.359 161.289 369.227 162.198C365.707 164.974 365.707 164.974 362.25 162.246C360.993 161.289 359.736 160.332 358.479 159.375C357.599 158.753 357.284 158.036 357.347 157.079C357.662 154.112 356.027 152.341 352.759 151.576C349.364 150.81 347.102 151.672 344.964 154.59C343.582 156.504 345.09 157.94 346.284 159.423C347.479 160.237 348.799 161.05 350.433 160.859C353.324 160.524 355.147 161.624 356.844 163.108C358.102 164.256 359.61 165.309 361.056 166.313C362.564 167.366 363.13 168.514 363.13 170.093C363.067 180.429 363.13 190.812 363.13 201.148C363.13 201.817 363.57 202.727 362.753 203.157C361.559 203.827 361.244 202.248 360.176 202.296C356.844 199.042 352.696 196.363 348.924 193.444C347.667 192.487 346.913 191.482 346.976 190.094C347.039 187.845 347.102 185.644 346.913 183.396C346.85 181.912 348.107 181.099 349.176 180.142C351.062 178.467 351.439 176.553 350.056 174.591C348.736 172.773 346.599 171.912 343.77 172.199C339.245 172.629 336.793 176.745 339.433 179.663C339.936 180.237 340.69 180.716 341.319 181.242C342.827 182.582 341.885 184.113 341.696 185.501C341.57 186.362 340.627 186.601 339.685 185.932C338.993 185.453 338.302 185.022 337.485 184.687C336.982 184.305 336.542 183.826 335.913 183.539C330.319 180.62 328.622 176.601 329.062 171.529C329.25 169.041 330.822 167.653 332.456 166.026C333.273 164.591 333.525 163.155 332.456 161.72C332.016 161.241 331.576 160.811 331.136 160.332C327.679 158.514 325.982 158.514 322.462 160.332C319.633 163.299 319.822 165.452 323.279 167.845C324.41 168.658 324.85 169.424 324.788 170.572C324.725 171.864 325.039 173.156 324.725 174.4C323.53 179.137 326.485 182.391 331.073 185.118C332.016 185.692 332.833 186.458 333.65 187.176C334.342 188.324 336.919 188.707 336.165 190.381C335.85 191.099 330.445 190.573 329.187 189.616C328.245 188.898 327.239 188.468 326.108 188.085C321.142 188.037 319.13 188.85 318.062 191.291C317.119 193.444 317.936 195.214 320.262 196.554C322.776 197.989 326.17 198.133 327.993 196.363C330.13 194.353 332.707 194.544 335.536 194.305C341.382 193.731 345.656 195.358 349.364 198.755C352.947 202.057 357.222 204.928 361.244 207.894C362.313 208.66 363.067 209.521 363.067 210.574C363.13 218.612 363.067 226.603 363.067 234.69C358.039 233.254 353.199 228.182 353.136 224.498C353.136 223.158 353.199 221.77 353.136 220.431C353.01 218.66 353.513 217.273 355.336 215.981C357.787 214.162 357.599 211.387 355.273 209.569C352.759 207.655 349.113 207.511 346.536 209.33C344.022 211.1 343.456 214.21 346.096 215.885C349.05 217.799 348.61 220 348.61 222.345C348.61 222.823 348.736 223.445 347.982 223.541C347.604 223.589 346.976 223.302 346.662 223.062C342.262 219.713 337.862 216.268 333.399 212.918C332.519 212.249 332.707 211.531 332.77 210.717C333.085 207.799 330.57 205.598 326.799 205.454C323.405 205.31 320.45 207.464 320.388 210.239C320.325 213.014 322.902 215.119 326.673 214.928C328.873 214.832 330.13 215.454 331.513 216.507C335.159 219.33 338.93 222.058 342.702 224.833C343.205 225.216 344.022 225.551 343.77 226.22C343.456 227.034 342.387 226.795 341.633 226.795C338.867 226.842 336.29 226.938 334.027 224.976C331.827 223.015 327.679 223.445 325.416 225.455C323.216 227.369 323.468 230.335 325.982 232.106C326.422 232.441 326.925 232.728 327.427 233.015C330.193 233.828 332.77 233.876 334.907 232.01C335.599 230.623 336.856 230.001 338.805 230.192C339.433 230.24 340.062 230.288 340.69 230.192C348.296 228.948 353.324 231.962 357.724 236.03C358.416 236.652 359.044 237.321 359.861 237.752C364.199 240.001 363.884 243.35 363.004 246.508C362.25 249.044 357.284 250.863 352.444 250.863C351.187 250.863 350.244 251.341 349.239 251.772C346.222 253.112 343.205 252.968 340.502 251.293C339.056 250.384 336.982 250.432 335.787 249.619C332.456 247.418 328.433 246.413 324.473 245.121C323.468 244.786 322.588 244.116 322.336 243.159C321.833 241.197 320.325 239.905 318.188 238.661C315.17 236.891 313.599 234.45 315.485 231.436C315.988 230.623 315.548 229.905 314.793 229.235C313.285 226.651 311.651 224.163 309.199 221.962C307.628 220.574 308.005 218.565 308.759 216.89C309.199 215.837 309.011 215.024 308.256 214.21C306.811 212.631 306.245 210.909 306.873 208.995C307.188 207.99 306.936 207.129 306.245 206.267C304.359 203.875 304.108 201.435 306.433 199.138C307.753 197.798 306.873 196.793 305.931 195.741C305.113 193.444 304.673 191.147 306.559 188.994C306.748 188.802 306.936 188.659 307.125 188.468C307.816 187.606 309.828 187.128 308.508 185.644C306.999 183.683 306.496 181.625 307.188 179.376C308.068 177.701 308.759 176.075 308.445 174.161C308.068 171.96 309.451 170.093 311.902 168.897C313.473 168.132 313.976 167.27 313.473 165.931C312.405 163.203 313.41 160.906 316.176 159.088C317.37 158.323 317.496 157.413 317.685 156.361C318.062 153.49 319.885 151.432 323.719 150.715C324.976 150.475 325.73 149.901 325.982 148.992C326.422 147.174 327.993 145.93 329.942 145.021C331.45 144.303 333.147 144.446 334.782 144.542C336.542 144.59 337.799 144.207 338.679 143.059C341.067 140.858 344.022 140.14 347.667 140.858C348.422 141.001 349.364 141.049 350.119 140.953C355.902 140.379 357.536 141.001 360.239 145.068C362.313 148.179 365.267 148.848 368.787 147.174C369.793 146.695 369.981 145.978 370.421 145.26C372.81 141.432 375.261 140.427 380.856 140.906C381.736 141.001 382.741 140.858 383.621 140.762C387.204 140.284 390.284 140.953 392.484 143.25C393.301 144.111 393.993 144.494 395.564 144.303C399.838 143.824 403.044 145.308 404.741 148.418C405.432 149.71 406.124 150.571 408.198 151.05C411.152 151.719 412.85 153.681 413.164 156.074C413.352 157.461 413.918 158.562 415.364 159.567C417.878 161.337 418.632 163.634 417.501 166.122C416.935 167.366 417.375 168.036 418.695 168.706C421.964 170.381 423.347 172.725 422.278 175.692C421.901 176.792 422.655 177.51 423.221 178.324C424.667 180.285 424.918 182.391 423.284 184.209C421.587 186.123 421.838 187.463 424.164 188.802C424.855 189.185 425.358 189.712 425.421 190.381C426.301 191.961 426.364 193.587 425.358 195.166C423.221 197.32 423.975 199.234 425.547 201.195ZM402.918 230.288C401.661 230.958 400.467 230.958 399.21 230.335C398.078 229.378 397.827 228.374 399.147 227.417C400.341 226.747 401.661 226.508 402.793 227.321C404.05 228.182 403.735 229.283 402.918 230.288ZM379.033 196.889C378.027 195.693 378.656 194.736 379.661 193.827C380.793 193.444 381.798 193.396 382.741 194.114C384.061 195.501 383.684 196.698 382.176 197.798C380.981 197.798 379.913 197.511 379.033 196.889ZM410.398 211.292C410.524 210 411.467 209.234 413.227 209.282C414.798 209.33 415.741 209.952 415.678 211.244C415.615 212.631 414.61 213.253 412.912 213.205C411.278 213.205 410.335 212.536 410.398 211.292ZM396.004 164.304C396.004 163.203 396.57 162.342 398.33 162.342C400.153 162.342 400.844 163.155 401.158 164.352C400.97 165.452 400.278 166.218 398.644 166.313C396.758 166.409 396.004 165.548 396.004 164.304ZM410.335 177.797C410.335 176.601 411.027 175.883 412.661 175.788C414.358 175.692 415.49 176.17 415.615 177.558C415.615 178.898 414.924 179.711 413.101 179.759C411.341 179.759 410.335 179.185 410.335 177.797ZM386.638 177.797C386.638 179.233 385.57 179.807 383.873 179.807C382.176 179.807 381.421 179.089 381.421 177.845C381.358 176.457 382.176 175.74 383.873 175.788C385.821 175.74 386.701 176.41 386.638 177.797ZM377.65 156.265C377.587 154.973 378.53 154.351 380.101 154.303C381.673 154.255 382.616 154.973 382.678 156.217C382.741 157.461 381.673 158.036 380.29 158.227C378.53 158.131 377.713 157.509 377.65 156.265ZM353.262 157.557C351.879 158.275 350.433 158.275 349.05 157.557C348.044 156.6 348.359 155.643 349.302 154.782C349.93 154.208 350.873 153.968 351.816 154.303C353.702 155.021 353.262 156.361 353.262 157.557ZM346.347 178.611C345.216 179.376 343.833 179.855 342.765 178.754C342.073 178.132 341.005 177.367 342.136 176.266C343.456 174.926 344.839 175.022 346.41 175.835C347.29 176.792 347.164 177.701 346.347 178.611ZM328.873 165.309C327.616 166.122 326.233 166.218 325.039 165.309C323.782 164.399 324.096 163.347 325.102 162.39C326.422 161.72 327.742 161.911 328.685 162.725C329.439 163.49 329.879 164.399 328.873 165.309ZM326.799 192.822C326.799 194.353 325.039 194.784 323.845 194.784C322.65 194.831 321.268 193.874 321.393 192.726C321.456 191.769 321.959 190.621 323.719 190.621C325.542 190.716 326.548 191.482 326.799 192.822ZM350.81 215.311C349.113 215.359 348.044 214.45 347.982 213.205C347.982 211.961 349.113 211.244 350.747 211.148C352.444 211.387 353.639 212.105 353.702 213.301C353.702 214.593 352.382 215.263 350.81 215.311ZM328.747 212.105C327.553 213.062 326.233 213.014 324.976 212.249C323.53 211.339 324.222 210.287 324.85 209.33C326.17 208.277 327.49 208.421 328.747 209.378C329.565 210.287 329.753 211.196 328.747 212.105ZM332.707 229.044C332.645 230.24 331.953 231.149 330.319 231.101C328.747 231.053 327.616 230.335 327.553 228.996C327.49 227.704 328.433 227.034 330.005 227.034C331.765 226.938 332.77 227.608 332.707 229.044Z" fill="white"/>
<path d="M106.628 315.683C106.628 316.013 106.455 316.276 106.109 316.54C105.763 316.737 105.33 316.869 104.811 316.869C104.465 316.869 104.205 316.803 103.859 316.671C103.513 316.54 103.34 316.276 103.167 316.013L98.5813 307.977H75.1333L70.461 316.013C70.1149 316.606 69.5092 316.869 68.7305 316.869C68.2113 316.869 67.8652 316.737 67.5191 316.54C67.173 316.276 67 316.013 67 315.618C67 315.42 67 315.222 67.0865 315.091L84.7374 284.858C85.0835 284.2 85.7757 283.87 86.7275 283.87C87.1601 283.87 87.5927 283.936 87.9388 284.134C88.2849 284.331 88.631 284.595 88.7175 284.858L106.368 315.091C106.628 315.288 106.628 315.486 106.628 315.683ZM76.5176 305.474H97.1969L86.9005 287.625L76.5176 305.474Z" fill="white"/>
<path d="M145.131 300.336C145.477 300.599 145.564 300.863 145.564 301.258V313.443C145.564 314.234 145.131 314.826 144.179 315.09C142.536 315.683 140.545 316.144 138.123 316.473C135.7 316.802 133.364 317 130.941 317C126.788 317 123.241 316.341 120.212 315.024C117.184 313.707 114.934 311.797 113.29 309.294C111.733 306.791 110.868 303.827 110.868 300.336C110.868 296.911 111.647 293.947 113.204 291.51C114.761 289.007 117.011 287.097 119.953 285.78C122.895 284.462 126.356 283.804 130.422 283.804C133.277 283.804 135.873 284.133 138.382 284.858C140.805 285.516 142.882 286.57 144.439 287.822C144.958 288.217 145.218 288.678 145.218 289.139C145.218 289.468 145.131 289.797 144.872 289.995C144.612 290.259 144.353 290.39 144.006 290.39C143.66 290.39 143.228 290.259 142.709 289.929C140.545 288.546 138.555 287.624 136.738 287.097C134.921 286.57 132.845 286.307 130.509 286.307C125.49 286.307 121.597 287.558 118.915 289.995C116.232 292.432 114.848 295.923 114.848 300.402C114.848 305.012 116.232 308.503 119.001 310.94C121.77 313.377 125.75 314.563 131.028 314.563C133.018 314.563 135.008 314.431 136.998 314.168C138.988 313.904 140.719 313.509 142.276 313.048V302.444H132.412C131.807 302.444 131.374 302.312 131.114 302.114C130.768 301.917 130.682 301.587 130.682 301.258C130.682 300.863 130.855 300.599 131.114 300.402C131.46 300.204 131.893 300.073 132.412 300.073H144.006C144.439 300.007 144.872 300.073 145.131 300.336Z" fill="white"/>
<path d="M188.394 315.683C188.394 316.012 188.221 316.275 187.875 316.539C187.529 316.802 187.096 316.868 186.663 316.868C185.971 316.868 185.452 316.605 185.019 316.144L176.8 306.198C175.588 304.815 174.463 303.827 173.166 303.3C171.954 302.773 170.224 302.509 168.061 302.509H159.754V315.353C159.754 315.814 159.581 316.144 159.235 316.407C158.889 316.671 158.457 316.802 157.851 316.802C157.245 316.802 156.813 316.671 156.467 316.407C156.12 316.144 155.947 315.814 155.947 315.353V285.516C155.947 285.121 156.12 284.791 156.553 284.528C156.899 284.265 157.418 284.133 157.937 284.133H172.993C177.492 284.133 180.953 284.923 183.375 286.438C185.798 288.019 187.009 290.258 187.009 293.222C187.009 295.857 185.971 297.899 183.895 299.48C181.818 300.994 178.963 301.917 175.156 302.18C176.107 302.444 176.973 302.839 177.838 303.431C178.617 304.024 179.482 304.815 180.347 305.803L187.875 314.958C188.307 315.221 188.394 315.485 188.394 315.683ZM172.993 300.072C180.001 300.072 183.548 297.767 183.548 293.222C183.548 290.983 182.683 289.336 180.953 288.217C179.222 287.097 176.54 286.57 172.993 286.57H159.841V300.072H172.993Z" fill="white"/>
<path d="M204.401 314.958C201.545 313.641 199.296 311.731 197.825 309.162C196.267 306.659 195.489 303.695 195.489 300.336C195.489 296.911 196.267 293.947 197.825 291.444C199.382 288.941 201.545 287.031 204.401 285.648C207.256 284.331 210.63 283.672 214.524 283.672C218.417 283.672 221.792 284.331 224.734 285.648C227.589 286.965 229.839 288.876 231.31 291.378C232.867 293.881 233.646 296.845 233.646 300.204C233.646 303.564 232.867 306.593 231.31 309.096C229.752 311.599 227.589 313.509 224.734 314.893C221.878 316.21 218.504 316.868 214.524 316.868C210.63 317 207.256 316.342 204.401 314.958ZM225.772 310.743C228.454 308.306 229.752 304.815 229.752 300.336C229.752 295.857 228.454 292.366 225.772 289.929C223.09 287.492 219.369 286.241 214.524 286.241C209.679 286.241 205.958 287.492 203.362 289.929C200.68 292.366 199.382 295.857 199.382 300.336C199.382 304.815 200.68 308.24 203.362 310.743C206.045 313.246 209.765 314.431 214.524 314.431C219.369 314.431 223.09 313.246 225.772 310.743ZM208.035 281.63C207.602 281.63 207.256 281.499 206.996 281.301C206.737 281.103 206.564 280.774 206.564 280.445C206.564 280.115 206.737 279.786 207.083 279.457L212.62 274.912C213.226 274.451 213.832 274.188 214.524 274.188C215.216 274.188 215.822 274.451 216.427 274.912L221.965 279.457C222.311 279.72 222.484 280.05 222.484 280.445C222.484 280.774 222.311 281.038 222.051 281.235C221.705 281.433 221.359 281.564 221.013 281.564C220.494 281.564 220.148 281.433 219.802 281.169L214.437 276.493L209.073 281.169C208.813 281.499 208.467 281.63 208.035 281.63Z" fill="white"/>
<path d="M276.042 284.265C276.301 284.529 276.474 284.858 276.474 285.319V315.354C276.474 315.815 276.301 316.145 275.955 316.408C275.609 316.671 275.176 316.803 274.657 316.803C274.052 316.803 273.532 316.606 273.013 316.145L246.45 288.876V315.354C246.45 315.815 246.277 316.145 245.931 316.408C245.585 316.671 245.153 316.803 244.633 316.803C244.028 316.803 243.595 316.671 243.336 316.408C243.076 316.145 242.903 315.815 242.903 315.354V285.319C242.903 284.858 243.076 284.529 243.422 284.265C243.768 284.002 244.201 283.87 244.806 283.87C245.412 283.87 246.018 284.134 246.364 284.529L272.84 311.732V285.319C272.84 284.858 273.013 284.529 273.359 284.265C273.705 284.002 274.138 283.87 274.657 283.87C275.263 283.87 275.782 284.002 276.042 284.265Z" fill="white"/>
<path d="M294.817 314.959C291.961 313.641 289.712 311.731 288.241 309.162C286.684 306.659 285.905 303.696 285.905 300.336C285.905 296.911 286.684 293.947 288.241 291.445C289.798 288.942 291.961 287.032 294.817 285.648C297.672 284.331 301.046 283.672 304.94 283.672C308.834 283.672 312.208 284.331 315.15 285.648C318.005 286.966 320.255 288.876 321.726 291.379C323.283 293.882 324.062 296.845 324.062 300.205C324.062 303.564 323.283 306.594 321.726 309.096C320.168 311.599 318.005 313.509 315.15 314.893C312.295 316.21 308.92 316.869 304.94 316.869C301.046 317 297.672 316.342 294.817 314.959ZM316.102 310.743C318.784 308.306 320.082 304.815 320.082 300.336C320.082 295.858 318.784 292.367 316.102 289.93C313.419 287.493 309.699 286.241 304.853 286.241C300.008 286.241 296.288 287.493 293.692 289.93C291.01 292.367 289.712 295.858 289.712 300.336C289.712 304.815 291.01 308.24 293.692 310.743C296.374 313.246 300.095 314.432 304.853 314.432C309.699 314.432 313.419 313.246 316.102 310.743Z" fill="white"/>
<path d="M372.69 284.331C373.036 284.594 373.209 284.989 373.209 285.385V315.419C373.209 315.88 373.036 316.21 372.69 316.473C372.344 316.737 371.911 316.868 371.392 316.868C370.786 316.868 370.44 316.737 370.094 316.473C369.835 316.21 369.662 315.88 369.662 315.419V289.798L355.299 310.941C354.779 311.665 354.174 311.994 353.309 311.994C352.443 311.994 351.751 311.665 351.318 310.941L336.869 289.995V315.419C336.869 315.88 336.696 316.21 336.436 316.473C336.177 316.737 335.744 316.868 335.139 316.868C334.533 316.868 334.1 316.737 333.754 316.473C333.408 316.21 333.322 315.88 333.322 315.419V285.385C333.322 284.924 333.495 284.594 333.841 284.331C334.187 284.067 334.619 283.936 335.225 283.936C335.917 283.936 336.523 284.265 337.042 284.989L353.309 308.767L369.315 284.989C369.835 284.265 370.44 283.936 371.132 283.936C371.911 283.87 372.344 284.001 372.69 284.331Z" fill="white"/>
<path d="M391.551 314.959C388.696 313.641 386.446 311.731 384.975 309.162C383.418 306.659 382.639 303.696 382.639 300.336C382.639 296.911 383.418 293.947 384.975 291.445C386.533 288.942 388.696 287.032 391.551 285.648C394.406 284.331 397.781 283.672 401.674 283.672C405.568 283.672 408.942 284.331 411.884 285.648C414.74 286.966 416.989 288.876 418.46 291.379C420.017 293.882 420.796 296.845 420.796 300.205C420.796 303.564 420.017 306.594 418.46 309.096C416.903 311.599 414.74 313.509 411.884 314.893C409.029 316.21 405.655 316.869 401.674 316.869C397.781 317 394.406 316.342 391.551 314.959ZM412.836 310.743C415.518 308.306 416.816 304.815 416.816 300.336C416.816 295.858 415.518 292.367 412.836 289.93C410.154 287.493 406.433 286.241 401.588 286.241C396.743 286.241 393.022 287.493 390.426 289.93C387.744 292.367 386.446 295.858 386.446 300.336C386.446 304.815 387.744 308.24 390.426 310.743C393.109 313.246 396.829 314.432 401.588 314.432C406.433 314.432 410.154 313.246 412.836 310.743Z" fill="white"/>
<path d="M445.888 316.21C445.542 315.947 445.282 315.617 445.282 315.222V285.583C445.282 285.187 445.455 284.858 445.888 284.595C446.234 284.331 446.753 284.199 447.272 284.199H459.039C465.788 284.199 470.979 285.583 474.7 288.415C478.421 291.181 480.238 295.199 480.238 300.468C480.238 305.672 478.421 309.689 474.7 312.522C470.979 315.354 465.788 316.737 459.039 316.737H447.272C446.753 316.605 446.32 316.474 445.888 316.21ZM476.344 300.336C476.344 291.181 470.547 286.571 458.866 286.571H449.089V314.102H458.866C470.547 314.168 476.344 309.558 476.344 300.336Z" fill="white"/>
<path d="M490.103 316.473C489.757 316.21 489.584 315.814 489.584 315.419V285.384C489.584 284.923 489.757 284.594 490.103 284.331C490.449 284.067 490.882 283.935 491.487 283.935C492.093 283.935 492.526 284.067 492.872 284.331C493.218 284.594 493.391 284.989 493.391 285.384V315.419C493.391 315.88 493.218 316.21 492.872 316.473C492.526 316.737 492.093 316.868 491.487 316.868C490.968 316.868 490.449 316.737 490.103 316.473Z" fill="white"/>
<path d="M536.998 300.336C537.258 300.599 537.431 300.863 537.431 301.258V313.443C537.431 314.234 536.998 314.826 536.047 315.09C534.403 315.683 532.413 316.144 529.99 316.473C527.654 316.802 525.231 317 522.808 317C518.655 317 515.108 316.341 512.079 315.024C509.051 313.707 506.801 311.797 505.158 309.294C503.6 306.791 502.735 303.827 502.735 300.336C502.735 296.911 503.514 293.947 505.071 291.51C506.628 289.007 508.878 287.097 511.82 285.78C514.762 284.462 518.223 283.804 522.289 283.804C525.145 283.804 527.74 284.133 530.249 284.858C532.672 285.516 534.749 286.57 536.306 287.822C536.825 288.217 537.085 288.678 537.085 289.139C537.085 289.468 536.998 289.797 536.739 289.995C536.479 290.259 536.22 290.39 535.787 290.39C535.441 290.39 535.008 290.259 534.489 289.929C532.326 288.546 530.336 287.624 528.519 287.097C526.702 286.57 524.625 286.307 522.289 286.307C517.271 286.307 513.377 287.558 510.695 289.995C508.013 292.432 506.628 295.923 506.628 300.402C506.628 305.012 508.013 308.503 510.782 310.94C513.55 313.377 517.53 314.563 522.808 314.563C524.798 314.563 526.788 314.431 528.778 314.168C530.769 313.904 532.499 313.509 534.056 313.048V302.444H524.279C523.674 302.444 523.241 302.312 522.981 302.114C522.722 301.917 522.549 301.587 522.549 301.258C522.549 300.863 522.722 300.599 522.981 300.402C523.328 300.204 523.76 300.073 524.279 300.073H535.873C536.306 300.007 536.652 300.073 536.998 300.336Z" fill="white"/>
<path d="M548.505 316.473C548.159 316.21 547.986 315.814 547.986 315.419V285.384C547.986 284.923 548.159 284.594 548.505 284.331C548.851 284.067 549.284 283.935 549.889 283.935C550.495 283.935 550.928 284.067 551.274 284.331C551.62 284.594 551.793 284.989 551.793 285.384V315.419C551.793 315.88 551.62 316.21 551.274 316.473C550.928 316.737 550.495 316.868 549.889 316.868C549.284 316.868 548.851 316.737 548.505 316.473Z" fill="white"/>
<path d="M573.771 316.473C573.425 316.209 573.252 315.814 573.252 315.419V286.636H559.235C558.716 286.636 558.283 286.504 558.024 286.306C557.678 286.109 557.591 285.779 557.591 285.384C557.591 284.989 557.764 284.66 558.024 284.462C558.283 284.265 558.716 284.133 559.235 284.133H590.816C591.335 284.133 591.681 284.265 592.028 284.462C592.374 284.726 592.547 284.989 592.547 285.384C592.547 285.779 592.374 286.043 592.028 286.306C591.681 286.504 591.335 286.636 590.816 286.636H576.886V315.419C576.886 315.88 576.713 316.209 576.367 316.473C576.021 316.736 575.588 316.868 574.982 316.868C574.55 316.868 574.117 316.736 573.771 316.473Z" fill="white"/>
<path d="M629.751 315.683C629.751 316.013 629.578 316.276 629.232 316.54C628.885 316.737 628.453 316.869 627.934 316.869C627.588 316.869 627.328 316.803 626.982 316.671C626.722 316.54 626.463 316.276 626.29 316.013L621.704 307.977H598.17L593.497 316.013C593.151 316.606 592.546 316.869 591.767 316.869C591.248 316.869 590.902 316.737 590.555 316.54C590.209 316.276 590.036 316.013 590.036 315.618C590.036 315.42 590.036 315.222 590.123 315.091L607.774 284.858C608.12 284.2 608.812 283.87 609.764 283.87C610.196 283.87 610.629 283.936 610.975 284.134C611.321 284.331 611.667 284.595 611.754 284.858L629.405 315.091C629.664 315.288 629.751 315.486 629.751 315.683ZM599.554 305.474H620.233L609.937 287.625L599.554 305.474Z" fill="white"/>
<path d="M637.712 316.276C637.366 316.012 637.107 315.749 637.107 315.353V285.384C637.107 284.923 637.28 284.594 637.626 284.331C637.972 284.067 638.405 283.935 639.01 283.935C639.616 283.935 640.048 284.067 640.395 284.331C640.741 284.594 640.914 284.923 640.914 285.384V314.168H661.593C662.112 314.168 662.545 314.3 662.804 314.497C663.064 314.695 663.237 315.024 663.237 315.419C663.237 315.815 663.064 316.144 662.804 316.341C662.545 316.539 662.112 316.671 661.593 316.671H639.097C638.578 316.605 638.145 316.473 637.712 316.276Z" fill="white"/>
</svg>
