<svg width="730" height="454" viewBox="0 0 730 454" fill="none" xmlns="http://www.w3.org/2000/svg">
<rect width="730" height="454" fill="white"/>
<path d="M232.587 194.646C229.03 194.593 225.406 195.104 221.836 196.262C209.82 200.159 201.6 210.252 199.591 221.802L187.119 225.847C187.7 208.654 198.342 192.79 215.083 186.035L225.559 182.2L232.587 194.646Z" fill="#0098C7"/>
<path d="M199.119 226.84C199.064 230.367 199.579 233.962 200.747 237.502C204.677 249.417 214.856 257.567 226.504 259.561L230.583 271.928C213.245 271.351 197.248 260.798 190.434 244.198L170 236.285L199.119 226.84Z" fill="#0098C7"/>
<path d="M221.421 232.205C241.469 222.436 245.837 220.691 261.546 212.645C255.913 201.967 249.316 197.108 237.668 195.113L229.958 182.747C249.791 182.648 266.923 193.876 273.737 210.476L294.172 218.39L221.421 232.205Z" fill="#0098C7"/>
<path d="M230.907 259.124C234.464 259.177 238.088 258.666 241.659 257.508C249.786 254.872 256.177 249.4 260.084 242.562L271.342 246.965C266.569 256.101 258.625 263.613 248.411 267.735L240.431 288L230.907 259.124Z" fill="#0098C7"/>
<path d="M492.727 276.469L457.896 250.659L423.083 276.469L457.906 189.036L492.727 276.469Z" fill="#E70E0E"/>
<path d="M250.761 215.855L227.831 203.016L208.927 221.184L223.041 166L250.761 215.855Z" fill="#E70E0E"/>
<path d="M321.545 200.825V262.142H315.929V253.548C314.167 256.468 311.827 258.699 308.909 260.242C306.046 261.784 302.798 262.556 299.164 262.556C295.089 262.556 291.4 261.619 288.097 259.746C284.793 257.873 282.205 255.256 280.333 251.896C278.461 248.535 277.526 244.706 277.526 240.409C277.526 236.111 278.461 232.282 280.333 228.922C282.205 225.561 284.793 222.972 288.097 221.154C291.4 219.281 295.089 218.344 299.164 218.344C302.687 218.344 305.853 219.088 308.661 220.576C311.525 222.008 313.864 224.129 315.681 226.939V200.825H321.545ZM299.659 257.35C302.687 257.35 305.413 256.661 307.836 255.284C310.313 253.851 312.24 251.84 313.617 249.251C315.048 246.662 315.764 243.714 315.764 240.409C315.764 237.103 315.048 234.156 313.617 231.566C312.24 228.977 310.313 226.994 307.836 225.616C305.413 224.184 302.687 223.468 299.659 223.468C296.576 223.468 293.795 224.184 291.318 225.616C288.895 226.994 286.968 228.977 285.536 231.566C284.16 234.156 283.472 237.103 283.472 240.409C283.472 243.714 284.16 246.662 285.536 249.251C286.968 251.84 288.895 253.851 291.318 255.284C293.795 256.661 296.576 257.35 299.659 257.35ZM377.023 218.675V262.142H371.407V254.209C369.865 256.854 367.745 258.92 365.047 260.407C362.35 261.84 359.266 262.556 355.798 262.556C350.127 262.556 345.639 260.986 342.336 257.845C339.087 254.65 337.463 249.995 337.463 243.88V218.675H343.327V243.301C343.327 247.874 344.455 251.344 346.713 253.713C348.97 256.082 352.191 257.267 356.376 257.267C360.946 257.267 364.552 255.89 367.195 253.135C369.838 250.325 371.159 246.441 371.159 241.483V218.675H377.023ZM411.45 262.556C407.155 262.556 403.301 261.619 399.888 259.746C396.529 257.873 393.886 255.256 391.959 251.896C390.032 248.48 389.068 244.651 389.068 240.409C389.068 236.167 390.032 232.365 391.959 229.004C393.886 225.644 396.529 223.027 399.888 221.154C403.301 219.281 407.155 218.344 411.45 218.344C415.194 218.344 418.525 219.088 421.443 220.576C424.418 222.008 426.757 224.129 428.463 226.939L424.086 229.913C422.655 227.765 420.838 226.167 418.635 225.12C416.433 224.019 414.038 223.468 411.45 223.468C408.312 223.468 405.476 224.184 402.944 225.616C400.466 226.994 398.511 228.977 397.08 231.566C395.703 234.156 395.015 237.103 395.015 240.409C395.015 243.769 395.703 246.744 397.08 249.334C398.511 251.868 400.466 253.851 402.944 255.284C405.476 256.661 408.312 257.35 411.45 257.35C414.038 257.35 416.433 256.826 418.635 255.779C420.838 254.733 422.655 253.135 424.086 250.986L428.463 253.961C426.757 256.771 424.418 258.92 421.443 260.407C418.47 261.84 415.139 262.556 411.45 262.556Z" fill="black"/>
<path d="M486.385 200.825H492.251V262.142H486.385V200.825ZM508.565 218.675H514.429V262.142H508.565V218.675ZM511.539 209.171C510.327 209.171 509.308 208.758 508.484 207.932C507.658 207.105 507.245 206.114 507.245 204.957C507.245 203.855 507.658 202.891 508.484 202.064C509.308 201.238 510.327 200.825 511.539 200.825C512.751 200.825 513.77 201.238 514.596 202.064C515.42 202.836 515.833 203.772 515.833 204.874C515.833 206.086 515.42 207.105 514.596 207.932C513.77 208.758 512.751 209.171 511.539 209.171ZM542.391 262.556C538.867 262.556 535.481 262.06 532.233 261.068C529.039 260.022 526.533 258.727 524.718 257.184L527.359 252.556C529.176 253.989 531.46 255.173 534.213 256.11C536.968 256.991 539.83 257.432 542.804 257.432C546.768 257.432 549.686 256.826 551.559 255.614C553.486 254.347 554.449 252.584 554.449 250.325C554.449 248.728 553.927 247.488 552.88 246.607C551.833 245.67 550.512 244.981 548.915 244.541C547.318 244.045 545.199 243.576 542.555 243.136C539.032 242.475 536.195 241.813 534.048 241.152C531.901 240.436 530.058 239.252 528.515 237.599C527.029 235.946 526.287 233.66 526.287 230.74C526.287 227.104 527.8 224.129 530.829 221.815C533.856 219.501 538.069 218.344 543.465 218.344C546.271 218.344 549.08 218.73 551.889 219.501C554.697 220.217 557.009 221.181 558.827 222.393L556.266 227.104C552.687 224.625 548.418 223.385 543.465 223.385C539.721 223.385 536.885 224.046 534.958 225.369C533.085 226.691 532.15 228.426 532.15 230.575C532.15 232.227 532.672 233.55 533.719 234.541C534.819 235.533 536.17 236.277 537.764 236.773C539.361 237.213 541.564 237.682 544.373 238.177C547.84 238.838 550.621 239.5 552.715 240.161C554.806 240.822 556.596 241.951 558.081 243.549C559.569 245.146 560.312 247.35 560.312 250.16C560.312 253.961 558.715 256.991 555.521 259.25C552.383 261.454 548.008 262.556 542.391 262.556Z" fill="black"/>
</svg>
