<svg width="128" height="27" viewBox="0 0 128 27" fill="none" xmlns="http://www.w3.org/2000/svg">
<rect width="14" height="27" fill="#96DCD4"/>
<path d="M32.28 7H33.76V19.72H41.6V21H32.28V7ZM53.0811 10.48V21H51.7211V19.08C51.3478 19.72 50.8344 20.22 50.1811 20.58C49.5278 20.9267 48.7811 21.1 47.9411 21.1C46.5678 21.1 45.4811 20.72 44.6811 19.96C43.8944 19.1867 43.5011 18.06 43.5011 16.58V10.48H44.9211V16.44C44.9211 17.5467 45.1944 18.3867 45.7411 18.96C46.2878 19.5333 47.0678 19.82 48.0811 19.82C49.1878 19.82 50.0611 19.4867 50.7011 18.82C51.3411 18.14 51.6611 17.2 51.6611 16V10.48H53.0811ZM60.7381 10.4C62.1115 10.4 63.1648 10.7467 63.8981 11.44C64.6315 12.12 64.9981 13.1333 64.9981 14.48V21H63.6381V19.36C63.3181 19.9067 62.8448 20.3333 62.2181 20.64C61.6048 20.9467 60.8715 21.1 60.0181 21.1C58.8448 21.1 57.9115 20.82 57.2181 20.26C56.5248 19.7 56.1781 18.96 56.1781 18.04C56.1781 17.1467 56.4981 16.4267 57.1381 15.88C57.7915 15.3333 58.8248 15.06 60.2381 15.06H63.5781V14.42C63.5781 13.5133 63.3248 12.8267 62.8181 12.36C62.3115 11.88 61.5715 11.64 60.5981 11.64C59.9315 11.64 59.2915 11.7533 58.6781 11.98C58.0648 12.1933 57.5381 12.4933 57.0981 12.88L56.4581 11.82C56.9915 11.3667 57.6315 11.02 58.3781 10.78C59.1248 10.5267 59.9115 10.4 60.7381 10.4ZM60.2381 19.98C61.0381 19.98 61.7248 19.8 62.2981 19.44C62.8715 19.0667 63.2981 18.5333 63.5781 17.84V16.12H60.2781C58.4781 16.12 57.5781 16.7467 57.5781 18C57.5781 18.6133 57.8115 19.1 58.2781 19.46C58.7448 19.8067 59.3981 19.98 60.2381 19.98ZM74.215 10.4C75.535 10.4 76.5817 10.7867 77.355 11.56C78.1417 12.32 78.535 13.4333 78.535 14.9V21H77.115V15.04C77.115 13.9467 76.8417 13.1133 76.295 12.54C75.7483 11.9667 74.9683 11.68 73.955 11.68C72.8217 11.68 71.9217 12.02 71.255 12.7C70.6017 13.3667 70.275 14.2933 70.275 15.48V21H68.855V10.48H70.215V12.42C70.6017 11.78 71.135 11.2867 71.815 10.94C72.5083 10.58 73.3083 10.4 74.215 10.4ZM94.0045 21.12C92.6179 21.12 91.3645 20.8133 90.2445 20.2C89.1379 19.5867 88.2645 18.74 87.6245 17.66C86.9979 16.5667 86.6845 15.3467 86.6845 14C86.6845 12.6533 86.9979 11.44 87.6245 10.36C88.2645 9.26667 89.1445 8.41333 90.2645 7.8C91.3845 7.18667 92.6379 6.88 94.0245 6.88C95.0645 6.88 96.0245 7.05333 96.9045 7.4C97.7845 7.74667 98.5312 8.25333 99.1445 8.92L98.2045 9.86C97.1112 8.75333 95.7312 8.2 94.0645 8.2C92.9579 8.2 91.9512 8.45333 91.0445 8.96C90.1379 9.46667 89.4245 10.16 88.9045 11.04C88.3979 11.92 88.1445 12.9067 88.1445 14C88.1445 15.0933 88.3979 16.08 88.9045 16.96C89.4245 17.84 90.1379 18.5333 91.0445 19.04C91.9512 19.5467 92.9579 19.8 94.0645 19.8C95.7445 19.8 97.1245 19.24 98.2045 18.12L99.1445 19.06C98.5312 19.7267 97.7779 20.24 96.8845 20.6C96.0045 20.9467 95.0445 21.12 94.0045 21.12ZM105.523 10.4C106.897 10.4 107.95 10.7467 108.683 11.44C109.417 12.12 109.783 13.1333 109.783 14.48V21H108.423V19.36C108.103 19.9067 107.63 20.3333 107.003 20.64C106.39 20.9467 105.657 21.1 104.803 21.1C103.63 21.1 102.697 20.82 102.003 20.26C101.31 19.7 100.963 18.96 100.963 18.04C100.963 17.1467 101.283 16.4267 101.923 15.88C102.577 15.3333 103.61 15.06 105.023 15.06H108.363V14.42C108.363 13.5133 108.11 12.8267 107.603 12.36C107.097 11.88 106.357 11.64 105.383 11.64C104.717 11.64 104.077 11.7533 103.463 11.98C102.85 12.1933 102.323 12.4933 101.883 12.88L101.243 11.82C101.777 11.3667 102.417 11.02 103.163 10.78C103.91 10.5267 104.697 10.4 105.523 10.4ZM105.023 19.98C105.823 19.98 106.51 19.8 107.083 19.44C107.657 19.0667 108.083 18.5333 108.363 17.84V16.12H105.063C103.263 16.12 102.363 16.7467 102.363 18C102.363 18.6133 102.597 19.1 103.063 19.46C103.53 19.8067 104.183 19.98 105.023 19.98ZM113.64 6.16H115.06V21H113.64V6.16ZM119.011 10.48H120.431V21H119.011V10.48ZM119.731 8.18C119.438 8.18 119.191 8.08 118.991 7.88C118.791 7.68 118.691 7.44 118.691 7.16C118.691 6.89333 118.791 6.66 118.991 6.46C119.191 6.26 119.438 6.16 119.731 6.16C120.025 6.16 120.271 6.26 120.471 6.46C120.671 6.64667 120.771 6.87333 120.771 7.14C120.771 7.43333 120.671 7.68 120.471 7.88C120.271 8.08 120.025 8.18 119.731 8.18ZM124.382 6.16H125.802V21H124.382V6.16Z" fill="black"/>
</svg>
